<svg width="1200" height="320" viewBox="0 0 1200 320" fill="none" xmlns="http://www.w3.org/2000/svg">
  <defs>
    <pattern id="dots" width="18" height="18" patternUnits="userSpaceOnUse">
      <circle cx="2" cy="2" r="1.1" fill="#262626" fill-opacity="0.12"/>
    </pattern>
    <clipPath id="terminalClip">
      <rect x="456" y="80" width="332" height="170" rx="10"/>
    </clipPath>
  </defs>

  <rect width="1200" height="320" fill="#EEE3D1"/>
  <rect x="12" y="12" width="1176" height="296" rx="18" fill="#EEE3D1" stroke="#111111" stroke-width="4"/>
  <rect x="24" y="24" width="1152" height="272" rx="14" fill="url(#dots)"/>

  <!-- top accents -->
  <rect x="40" y="36" width="100" height="16" fill="#D46A4C"/>
  <rect x="150" y="36" width="100" height="16" fill="#C4933A"/>
  <rect x="260" y="36" width="100" height="16" fill="#274648ff"/>

  <!-- left content -->
  <text x="56" y="168" fill="#111111" font-size="88" font-weight="800"
        font-family="ui-monospace, SFMono-Regular, Menlo, Consolas, monospace">J92</text>

  <rect x="56" y="186" width="258" height="40" fill="#111111"/>
  <text x="70" y="212" fill="#F7F1E8" font-size="21" font-weight="700"
        font-family="ui-monospace, SFMono-Regular, Menlo, Consolas, monospace">FULL-STACK DEVELOPER</text>

 

  <text x="56" y="250" fill="#5A5249" font-size="17"
        font-family="ui-monospace, SFMono-Regular, Menlo, Consolas, monospace">next.js • react • laravel</text>

  <!-- terminal -->
  <rect x="420" y="58" width="404" height="214" fill="#111111"/>
  <rect x="436" y="74" width="372" height="182" fill="#F6F0E5" stroke="#111111" stroke-width="4"/>
  <rect x="436" y="74" width="372" height="30" fill="#D8CAB1" stroke="#111111" stroke-width="4"/>
  <circle cx="458" cy="89" r="5" fill="#D46A4C"/>
  <circle cx="476" cy="89" r="5" fill="#C4933A"/>
  <circle cx="494" cy="89" r="5" fill="#27483E"/>
  <text x="516" y="94" fill="#111111" font-size="13"
        font-family="ui-monospace, SFMono-Regular, Menlo, Consolas, monospace">/j92/profile</text>

  <g clip-path="url(#terminalClip)">
    <rect x="456" y="110" width="332" height="140" fill="#171717"/>
    <text x="476" y="142" fill="#EAE1D0" font-size="22"
          font-family="ui-monospace, SFMono-Regular, Menlo, Consolas, monospace">$ whoami</text>
    <text x="476" y="172" fill="#C4933A" font-size="24" font-weight="700"
          font-family="ui-monospace, SFMono-Regular, Menlo, Consolas, monospace">j92</text>

    <text x="476" y="212" fill="#A9B7AE" font-size="18"
          font-family="ui-monospace, SFMono-Regular, Menlo, Consolas, monospace">const focus = ["web apps", </text>
<text x="526" y="232" fill="#A9B7AE" font-size="18"
          font-family="ui-monospace, SFMono-Regular, Menlo, Consolas, monospace">"automation", "ai tools"]</text>

    <rect x="520" y="156" width="10" height="18" fill="#EAE1D0">
      <animate attributeName="opacity" values="1;0;1" dur="1s" repeatCount="indefinite"/>
    </rect>
  </g>





<g transform="translate(920, 45) scale(14)">
  <g>
    <!-- Animație Săritură -->
    <animateTransform attributeName="transform" type="translate" values="0 0; 0 -2; 0 0" dur="0.8s" repeatCount="indefinite" />
    
    <!-- Corp Rață -->
    <path d="M5 5h5v1H5zM4 6h7v1H4zM3 7h9v5H3zM4 12h7v1H4z" fill="#FFD700" />
    <!-- Cioc -->
    <path d="M11 8h2v2h-2zM10 9h1v1h-1z" fill="#FF8C00" />
    
    <!-- Ochi cu Clipit -->
    <rect x="8" y="7" width="1" height="1" fill="#000">
      <animate attributeName="opacity" values="1;1;0;1;1" dur="1s" repeatCount="indefinite" />
    </rect>

    <!-- Aripă cu Flap -->
    <path d="M4 9h3v1H4z" fill="#F0C600">
      <animateTransform attributeName="transform" type="rotate" values="0 4 9; -30 4 9; 0 4 9" dur="0.4s" repeatCount="indefinite" additive="sum" />
    </path>
  </g>
</g>




 <g transform="translate(720, 125)">
        <svg width="40" height="40" viewBox="0 0 10 10" shape-rendering="crispEdges">
            <g>
                <path d="M2 4h6v4H2z" fill="#FF6B00" />
                <path d="M3 2h1v2H3zm3 0h1v2H6z" fill="#FF6B00" />
                <rect x="3" y="5" width="1" height="1" fill="white" />
                <rect x="6" y="5" width="1" height="1" fill="white" />
                <animateTransform 
                    attributeName="transform" 
                    type="translate" 
                    values="0 0; 0 0.5; 0 0" 
                    dur="2s" 
                    repeatCount="indefinite" />
            </g>
        </svg>
    </g>


</svg>
